<svg width="200" height="300" xmlns="http://www.w3.org/2000/svg">
 <g>
  <title>Layer 1</title>
  <g id="svg_23"/>
  <g stroke="null" id="svg_24">
   <line stroke="#000" fill="none" x1="104.41572" y1="54.43951" x2="38.8553" y2="132.48752" id="svg_32"/>
   <line stroke="#000" fill="none" x1="105.74017" y1="53.51587" x2="171.30059" y2="132.48752" id="svg_33"/>
   <line stroke="#000" fill="none" x1="40.84199" y1="131.56388" x2="78.5889" y2="131.56388" id="svg_35"/>
   <line stroke="#000" fill="none" x1="169.97614" y1="131.10206" x2="122.95806" y2="131.10206" id="svg_36"/>
   <line stroke="#000" fill="none" x1="122.95806" y1="131.10206" x2="181.23399" y2="202.68454" id="svg_39"/>
   <line stroke="#000" fill="none" x1="77.92666" y1="131.10206" x2="16.33961" y2="204.53184" id="svg_40"/>
   <line stroke="#000" fill="none" x1="13.69071" y1="203.14636" x2="73.95331" y2="203.14636" id="svg_42"/>
   <line stroke="#000" fill="none" x1="180.57176" y1="202.68454" x2="124.28251" y2="203.14635" id="svg_43"/>
   <line stroke="#000" fill="none" x1="70.64216" y1="202.68454" x2="71.96663" y2="228.5466" id="svg_44"/>
   <line stroke="#000" fill="none" x1="125.60696" y1="202.22272" x2="126.93141" y2="227.62296" id="svg_45"/>
   <line stroke="#000" fill="none" x1="71.30441" y1="227.16114" x2="126.93141" y2="225.77567" id="svg_46"/>
   <line stroke="#000" fill="none" x1="104.41572" y1="54.43951" x2="38.8553" y2="132.48752" id="svg_12"/>
   <line stroke="#000" fill="none" x1="105.74017" y1="53.51587" x2="171.30059" y2="132.48752" id="svg_13"/>
   <line stroke="#000" fill="none" x1="40.84199" y1="131.56388" x2="78.5889" y2="131.56388" id="svg_14"/>
   <line stroke="#000" fill="none" x1="169.97614" y1="131.10206" x2="122.95806" y2="131.10206" id="svg_15"/>
   <line stroke="#000" fill="none" x1="122.95806" y1="131.10206" x2="181.23399" y2="202.68454" id="svg_16"/>
   <line stroke="#000" fill="none" x1="77.92666" y1="131.10206" x2="16.33961" y2="204.53184" id="svg_17"/>
   <line stroke="#000" fill="none" x1="13.69071" y1="203.14636" x2="73.95331" y2="203.14636" id="svg_18"/>
   <line stroke="#000" fill="none" x1="180.57176" y1="202.68454" x2="124.28251" y2="203.14635" id="svg_19"/>
   <line stroke="#000" fill="none" x1="70.64216" y1="202.68454" x2="71.96663" y2="228.5466" id="svg_20"/>
   <line stroke="#000" fill="none" x1="125.60696" y1="202.22272" x2="126.93141" y2="227.62296" id="svg_21"/>
   <line stroke="#000" fill="none" x1="71.30441" y1="227.16114" x2="126.93141" y2="225.77567" id="svg_22"/>
  </g>
 </g>

</svg>